<?xml version="1.0" standalone="no"?>
<!DOCTYPE svg PUBLIC "-//W3C//DTD SVG 20010904//EN"
 "http://www.w3.org/TR/2001/REC-SVG-20010904/DTD/svg10.dtd">
<svg version="1.0" xmlns="http://www.w3.org/2000/svg"
 width="244.000000pt" height="244.000000pt" viewBox="0 0 244.000000 244.000000"
 preserveAspectRatio="xMidYMid meet">
<metadata>
Created by potrace 1.14, written by Peter Selinger 2001-2017
</metadata>
<g transform="translate(0.000000,244.000000) scale(0.100000,-0.100000)"
fill="#000000" stroke="none">
<path d="M975 2430 c-3 -5 -3 -10 2 -10 4 -1 -3 -7 -17 -15 -18 -9 -29 -10
-37 -3 -9 7 -13 7 -13 -2 0 -10 -4 -9 -16 1 -14 11 -19 9 -35 -11 -16 -21 -20
-23 -29 -10 -9 14 -14 7 -11 -13 1 -5 -3 -5 -9 -2 -6 4 -18 -1 -26 -11 -9 -11
-13 -14 -10 -7 11 21 -13 24 -24 3 -6 -11 -16 -18 -22 -14 -5 4 -14 1 -18 -6
-5 -7 -20 -14 -36 -16 -15 -2 -30 -8 -34 -15 -4 -6 -12 -9 -17 -6 -12 8 -44
-29 -35 -39 4 -5 -1 -2 -11 5 -15 12 -17 12 -10 -4 5 -14 3 -17 -10 -12 -9 3
-19 1 -23 -5 -5 -7 -2 -8 6 -3 9 5 11 4 6 -4 -4 -6 -12 -9 -17 -5 -5 3 -19 -6
-30 -20 -11 -14 -27 -26 -35 -26 -8 0 -14 -4 -14 -9 0 -5 -13 -14 -30 -21 -16
-7 -27 -16 -24 -21 3 -5 -2 -9 -10 -9 -9 0 -16 -7 -16 -16 0 -8 -4 -12 -10 -9
-5 3 -10 -1 -10 -10 0 -9 -4 -13 -10 -10 -9 5 -14 -5 -12 -25 0 -3 -9 -17 -20
-30 l-20 -25 18 30 c16 28 16 29 0 16 -10 -8 -26 -31 -36 -51 -10 -20 -31 -45
-45 -54 -14 -9 -23 -21 -20 -26 4 -6 1 -10 -4 -10 -6 0 -11 -7 -11 -16 0 -9
-6 -14 -13 -11 -8 3 -14 -1 -14 -9 0 -7 4 -11 8 -8 4 2 11 0 14 -6 4 -6 3 -10
-2 -9 -4 1 -15 1 -23 0 -13 -1 -13 -2 0 -11 12 -8 12 -10 -3 -16 -9 -3 -17
-10 -17 -16 0 -5 -7 -17 -16 -25 -13 -13 -13 -17 -2 -24 12 -8 4 -13 -16 -10
-5 1 -3 -6 5 -15 8 -10 9 -15 3 -11 -7 4 -17 0 -24 -8 -11 -13 -10 -15 6 -10
12 4 9 0 -6 -9 -14 -8 -19 -15 -12 -16 10 0 10 -4 -2 -16 -17 -16 -22 -29 -8
-20 4 2 8 -4 8 -14 0 -15 -3 -16 -14 -8 -10 9 -12 8 -10 -3 2 -8 -3 -13 -10
-11 -8 1 -11 -2 -7 -8 3 -6 11 -8 16 -5 16 11 10 -7 -9 -22 -10 -8 -11 -11 -2
-7 13 7 13 5 1 -9 -11 -14 -11 -17 0 -17 11 0 11 -2 -1 -10 -11 -7 -11 -10 -2
-10 7 0 11 -4 7 -10 -3 -5 -13 -6 -23 -3 -16 6 -16 6 0 -11 22 -21 24 -33 3
-16 -13 11 -14 10 -9 -5 5 -12 4 -16 -3 -12 -8 5 -11 -52 -12 -184 -1 -184 0
-192 21 -208 17 -14 18 -18 5 -18 -9 0 -14 4 -11 9 3 4 1 8 -5 8 -15 0 -6 -61
10 -71 7 -4 17 -5 23 -2 5 3 6 1 2 -6 -4 -6 -12 -9 -17 -6 -5 3 -6 -1 -3 -9 3
-9 9 -14 13 -11 4 2 8 -2 8 -10 0 -8 -5 -12 -10 -8 -5 3 -4 -4 2 -16 9 -16 9
-21 -1 -21 -9 0 -9 -3 2 -9 8 -6 18 -7 24 -4 5 3 6 1 2 -6 -4 -6 -12 -9 -17
-6 -5 3 -6 -1 -3 -9 6 -15 18 -20 37 -17 5 1 6 -3 2 -9 -3 -6 -11 -8 -16 -5
-5 3 -6 -1 -3 -9 3 -9 11 -13 18 -9 8 5 8 3 0 -8 -8 -10 -8 -21 0 -42 7 -15
14 -25 17 -23 2 3 9 -6 16 -20 6 -13 7 -22 3 -19 -4 3 -6 -4 -3 -15 3 -11 11
-20 18 -20 7 0 16 -7 19 -16 4 -10 2 -13 -7 -9 -6 4 -4 0 6 -8 9 -8 17 -24 17
-36 0 -11 4 -21 10 -21 5 0 7 8 4 18 -3 9 2 6 10 -8 8 -14 15 -33 16 -42 0
-10 7 -18 16 -18 10 0 14 -5 10 -16 -3 -8 -2 -12 4 -9 6 3 10 -1 10 -10 0 -9
4 -13 10 -10 5 3 10 -1 10 -9 0 -9 5 -16 11 -16 5 0 8 -4 4 -9 -3 -5 0 -13 6
-17 7 -4 9 -3 5 4 -3 6 -1 14 6 18 7 4 10 4 6 -1 -10 -10 10 -47 22 -40 5 3
12 0 16 -6 4 -8 3 -9 -4 -5 -7 4 -12 2 -12 -3 0 -11 15 -15 34 -12 5 1 3 -5
-4 -14 -11 -13 -10 -14 5 -9 13 5 16 4 11 -4 -4 -7 -1 -12 8 -12 9 0 23 -11
32 -25 9 -14 21 -22 27 -18 6 4 8 0 4 -9 -8 -21 3 -31 19 -17 9 8 15 5 23 -9
6 -11 7 -23 3 -27 -4 -5 -2 -5 5 -2 6 4 13 2 15 -3 2 -6 14 -12 26 -13 13 -1
41 -18 63 -39 39 -37 57 -48 44 -28 -3 6 -1 10 4 10 6 0 11 -4 11 -10 0 -12
58 -42 69 -35 5 2 11 -1 14 -9 3 -8 16 -12 31 -11 14 2 26 -1 26 -6 0 -5 7 -9
15 -9 8 0 15 -4 15 -10 0 -5 5 -10 11 -10 5 0 8 4 5 8 -3 5 1 9 9 9 8 0 12 -4
9 -9 -3 -4 4 -8 16 -8 14 0 19 -4 14 -12 -5 -9 -2 -9 9 1 9 7 17 9 17 4 0 -5
11 -15 24 -21 19 -8 27 -7 41 6 10 9 15 12 11 5 -3 -6 -2 -14 4 -18 5 -3 10
-1 10 6 0 8 7 5 20 -6 18 -16 20 -16 26 -1 3 9 10 13 15 10 5 -3 7 -10 4 -15
-4 -5 -1 -9 4 -9 6 0 11 7 11 16 0 8 5 12 10 9 6 -4 7 -12 3 -18 -3 -7 4 -3
17 8 13 11 20 15 17 9 -9 -15 20 -27 29 -12 5 7 2 8 -6 3 -9 -5 -11 -4 -6 4 8
12 27 3 49 -24 5 -6 6 0 4 13 -6 23 -5 24 15 5 12 -10 18 -13 15 -6 -5 7 0 9
13 6 11 -3 18 -8 16 -12 -3 -4 4 -7 14 -7 14 0 16 4 9 12 -7 8 -6 15 2 20 7 4
9 3 6 -3 -4 -6 -1 -13 6 -15 18 -7 38 2 31 14 -3 5 3 4 14 -3 17 -10 23 -10
36 0 13 11 16 11 16 0 0 -12 2 -12 9 -1 11 17 21 17 32 0 7 -10 9 -9 9 4 0 9
5 20 12 24 7 5 9 2 6 -8 -4 -9 0 -15 8 -15 8 0 12 3 9 5 -7 7 26 42 39 42 6 0
3 -5 -6 -11 -10 -5 -18 -14 -18 -19 0 -5 16 -1 35 10 19 11 35 16 35 11 0 -5
9 -7 20 -4 11 3 20 10 20 15 0 5 -5 6 -12 2 -7 -5 -8 -3 -3 5 5 9 10 10 18 2
8 -8 17 -5 34 11 17 15 23 18 23 7 1 -9 8 -5 22 11 13 15 19 18 15 8 -4 -12
-2 -15 8 -11 8 3 13 8 11 12 -2 3 2 12 10 19 11 10 14 10 14 1 0 -7 9 -3 20 9
12 12 30 22 40 22 11 0 20 6 20 13 0 8 4 7 10 -3 8 -13 10 -12 10 3 0 9 5 17
11 17 5 0 8 4 5 8 -3 5 5 8 17 8 13 -1 21 4 19 12 -1 6 1 11 5 11 21 -3 26 2
13 12 -12 8 -10 9 8 4 13 -4 22 -2 22 5 0 6 5 8 10 5 9 -5 14 7 12 26 -1 4 9
4 21 1 20 -5 20 -4 8 11 -16 20 -1 23 18 5 10 -11 11 -9 5 6 -5 13 -4 17 3 13
6 -4 10 1 9 11 -1 11 6 17 21 16 19 0 20 2 11 20 -10 19 -10 20 6 7 14 -12 16
-12 10 3 -5 12 -2 15 12 9 12 -4 15 -3 10 5 -4 7 -2 12 4 12 6 0 9 4 6 9 -3 5
3 11 14 14 11 3 20 12 20 21 0 9 4 16 10 16 5 0 6 7 3 17 -4 11 -3 14 5 9 7
-4 12 -2 12 3 0 6 8 11 18 12 10 0 12 3 5 6 -10 3 -9 8 2 20 8 8 13 19 10 24
-4 5 2 6 11 2 12 -4 15 -3 10 5 -4 7 -2 12 6 12 9 0 9 3 -2 10 -12 7 -12 10
-1 10 8 0 11 6 7 16 -3 8 -2 12 4 9 6 -4 17 1 26 9 9 9 11 16 4 16 -6 0 -8 5
-5 10 4 6 11 7 17 4 6 -4 5 3 -2 16 -8 15 -8 20 -1 16 6 -4 11 -2 11 5 0 6 8
18 18 26 10 8 11 11 2 7 -12 -7 -13 -5 -3 8 7 8 10 18 6 21 -3 4 -1 7 6 7 7 0
9 5 6 10 -4 6 -11 7 -17 4 -7 -4 -8 -2 -4 4 5 9 13 9 29 0 20 -10 21 -10 8 5
-9 11 -10 17 -2 17 6 0 11 5 11 11 0 5 -6 7 -12 4 -7 -4 -4 1 6 9 15 12 16 16
5 16 -12 0 -12 2 0 9 11 7 11 9 0 14 -10 4 -9 6 4 6 9 1 17 6 17 12 0 5 -4 7
-10 4 -6 -3 -7 1 -4 9 3 9 10 14 14 11 4 -3 10 2 13 10 4 9 1 12 -9 8 -7 -3
-14 0 -14 6 0 6 6 11 14 11 8 0 18 5 22 12 4 6 3 8 -3 5 -6 -4 -11 4 -10 18 0
16 4 22 11 18 6 -4 5 1 -3 10 -11 14 -11 17 0 17 12 0 12 2 1 9 -11 7 -10 9 3
15 9 3 13 11 10 16 -4 6 -1 18 6 26 7 8 8 14 3 13 -21 -4 -35 2 -29 11 4 6 10
8 14 5 5 -2 6 7 3 20 -2 14 -9 22 -14 19 -6 -4 -5 3 2 15 13 24 10 62 -5 73
-6 4 -2 8 9 8 12 0 16 -5 13 -15 -4 -8 -3 -16 1 -19 19 -12 9 39 -11 55 -20
16 -21 18 -4 24 17 7 17 9 1 32 -9 14 -11 22 -4 18 14 -9 10 27 -5 37 -6 5 -4
8 4 8 11 0 10 4 -5 16 -10 8 -14 13 -8 10 7 -3 15 1 18 10 4 11 2 15 -7 11 -8
-3 -14 1 -14 9 0 7 3 11 7 9 4 -2 7 2 7 9 0 8 -6 12 -13 9 -6 -2 -12 2 -11 9
1 36 -4 49 -15 42 -9 -5 -9 -2 1 9 11 14 11 20 1 32 -10 12 -10 15 1 15 8 0 4
7 -9 16 -23 16 -29 34 -11 34 5 0 7 -5 3 -12 -4 -7 -3 -8 5 -4 14 9 5 26 -15
26 -8 0 -13 4 -10 9 4 5 0 12 -6 14 -9 4 -9 6 1 6 11 1 10 5 -5 17 -10 8 -13
13 -7 9 9 -4 11 -1 7 9 -3 9 -10 13 -15 10 -5 -3 -9 4 -9 16 0 12 -4 19 -9 15
-5 -3 -13 0 -17 6 -4 7 -3 9 4 5 6 -3 13 -2 17 4 5 9 -6 14 -26 12 -3 -1 -5
10 -3 23 1 17 -3 25 -12 25 -9 0 -12 5 -9 10 3 6 1 10 -5 10 -6 0 -8 5 -5 10
3 6 1 10 -5 10 -6 0 -8 5 -5 10 6 9 -8 14 -28 11 -4 -1 -3 8 3 19 8 16 8 18
-4 14 -8 -3 -17 0 -22 7 -4 8 -3 10 4 5 7 -4 12 -2 12 3 0 6 -7 11 -16 11 -10
0 -14 6 -11 15 4 8 1 17 -5 21 -7 5 -8 2 -3 -7 5 -8 -3 -3 -16 11 -13 14 -35
35 -49 48 -21 20 -22 22 -5 17 16 -6 17 -5 5 4 -8 6 -24 11 -35 12 -12 0 -15
3 -7 6 10 4 7 9 -9 17 -13 6 -29 22 -35 35 -8 16 -13 19 -17 9 -4 -8 -6 -7 -6
5 -1 10 -5 15 -11 12 -5 -3 -10 1 -10 9 0 8 -10 16 -22 18 -15 2 -22 9 -22 20
1 14 -2 16 -18 7 -13 -7 -18 -7 -14 -1 3 6 -3 13 -14 17 -11 4 -18 10 -15 15
3 4 -2 11 -11 14 -10 4 -13 2 -9 -7 4 -6 -1 -3 -10 8 -9 11 -23 19 -32 17 -8
-2 -22 6 -30 18 -12 18 -17 19 -31 8 -12 -10 -14 -10 -8 0 4 7 1 12 -9 12 -10
0 -13 5 -9 13 5 7 0 6 -11 -3 -11 -9 -16 -10 -11 -2 4 7 1 12 -8 12 -9 0 -16
5 -16 11 0 8 -4 8 -14 0 -11 -10 -17 -8 -25 6 -8 14 -10 15 -11 3 0 -13 -2
-13 -9 0 -6 8 -7 18 -4 23 3 5 -4 4 -16 -2 -18 -10 -21 -9 -22 6 0 11 -3 13
-6 6 -2 -7 -11 -13 -19 -13 -10 0 -12 5 -8 13 5 7 0 6 -11 -3 -10 -8 -16 -10
-12 -3 5 8 0 11 -13 10 -11 -1 -20 -6 -20 -12 0 -5 -5 -3 -10 5 -5 8 -10 11
-11 5 0 -5 -4 -1 -8 9 -4 11 -15 20 -24 22 -11 1 -15 -2 -11 -9 5 -8 2 -7 -7
1 -20 19 -49 15 -43 -5 5 -17 5 -17 -6 -1 -9 15 -30 17 -175 17 -125 -1 -162
-4 -159 -13 3 -7 -3 -19 -13 -27 -16 -13 -17 -12 -4 4 9 12 10 17 2 17 -7 0
-9 5 -6 10 3 6 4 10 1 10 -3 0 -8 -4 -11 -10z m-85 -34 c0 -3 -4 -8 -10 -11
-5 -3 -10 -1 -10 4 0 6 5 11 10 11 6 0 10 -2 10 -4z m24 -572 c3 -8 2 -12 -4
-9 -6 3 -10 10 -10 16 0 14 7 11 14 -7z m-58 -3 c-3 -5 4 -9 17 -9 12 0 32 -2
44 -5 13 -3 22 -3 22 1 -4 23 4 24 17 2 13 -21 15 -22 11 -4 -3 13 1 21 10 21
8 0 12 -6 9 -14 -3 -8 -1 -11 5 -8 5 4 18 1 27 -6 16 -13 16 -12 0 6 -16 19
-15 20 8 21 13 1 24 -2 24 -8 0 -5 -5 -6 -12 -2 -7 4 -8 3 -4 -5 4 -6 12 -9
17 -5 5 3 18 0 27 -7 14 -11 15 -11 5 1 -17 18 -16 27 2 27 8 0 12 -5 8 -10
-3 -5 4 -6 17 -2 17 5 21 4 15 -6 -6 -11 -5 -12 6 -1 20 18 33 15 18 -5 -12
-16 -12 -17 2 -6 9 7 19 9 23 5 4 -4 7 -2 6 3 -5 25 2 28 16 5 13 -21 15 -22
11 -4 -3 13 1 21 10 21 8 0 12 -6 9 -14 -3 -8 -1 -11 5 -8 5 4 18 1 27 -6 16
-13 16 -12 0 7 -16 19 -16 20 2 20 10 0 17 -3 14 -7 -2 -4 3 -9 11 -13 8 -3
14 -2 14 2 -4 23 4 24 17 2 13 -21 15 -22 11 -4 -3 13 1 21 10 21 8 0 12 -6 9
-14 -3 -8 -1 -11 5 -8 5 4 18 1 27 -6 12 -10 11 -6 -3 10 l-20 24 23 -12 c13
-7 30 -10 38 -7 8 3 12 2 9 -3 -3 -5 -1 -12 5 -16 5 -3 10 0 10 7 0 9 3 9 8 2
4 -6 16 -14 26 -17 17 -7 17 -6 5 9 -9 11 0 8 23 -7 20 -13 42 -33 48 -44 7
-13 9 -14 6 -3 -3 12 -1 15 9 11 8 -3 12 -9 9 -14 -3 -5 -1 -9 3 -9 5 0 18 -7
29 -15 19 -15 19 -15 -1 -9 l-20 6 20 -13 c11 -7 26 -19 33 -26 11 -11 11 -13
0 -14 -10 0 -10 -2 0 -6 6 -2 10 -9 6 -14 -3 -5 3 -9 12 -9 14 0 15 -3 6 -12
-10 -10 -8 -16 10 -31 16 -13 18 -17 6 -13 -12 3 -15 1 -11 -10 3 -7 9 -14 14
-14 5 0 9 -5 9 -11 0 -5 -6 -7 -12 -3 -10 6 -10 4 0 -7 6 -7 12 -17 12 -22 0
-4 -6 -5 -12 -1 -8 5 -8 1 1 -10 12 -14 12 -22 3 -36 -8 -14 -8 -21 2 -29 7
-6 15 -10 17 -8 2 1 -1 -3 -8 -9 -10 -8 -10 -13 0 -23 7 -7 8 -12 2 -11 -21 4
-29 -1 -16 -9 13 -8 13 -12 0 -27 -11 -14 -11 -16 -1 -10 11 7 12 4 3 -13 -7
-12 -9 -25 -7 -30 3 -5 0 -11 -8 -14 -8 -3 -13 -16 -12 -30 3 -25 -11 -52 -29
-56 -5 -2 -9 -7 -8 -12 2 -5 -3 -9 -11 -9 -8 0 -22 -9 -30 -21 -8 -12 -18 -19
-23 -16 -5 3 -20 -4 -33 -15 -14 -11 -19 -16 -11 -12 10 5 12 3 7 -5 -6 -9
-11 -9 -22 0 -12 10 -13 9 -8 -5 4 -9 3 -16 -2 -15 -5 1 -11 0 -14 -1 -20 -8
-48 -5 -43 4 4 6 -1 5 -10 -3 -14 -11 -17 -11 -18 0 0 10 -2 11 -6 2 -3 -10
-10 -10 -26 -1 -19 10 -20 9 -10 -4 11 -12 8 -14 -17 -10 -17 2 -27 9 -23 15
3 6 1 7 -6 3 -8 -6 -9 -12 -2 -20 8 -9 7 -13 -4 -13 -8 0 -12 4 -10 8 3 3 -3
13 -12 20 -15 12 -16 12 -10 -3 5 -13 1 -16 -21 -12 -15 3 -35 7 -44 10 -13 4
-18 0 -18 -13 0 -15 -2 -14 -16 5 -11 16 -19 20 -28 13 -15 -12 -56 -10 -56 3
0 5 -3 6 -6 3 -4 -4 -1 -14 7 -23 13 -16 12 -16 -9 -5 -29 15 -48 5 -30 -17
11 -13 10 -15 -5 -9 -16 6 -16 5 0 -20 10 -15 13 -24 6 -20 -9 6 -9 0 -3 -23
5 -17 5 -28 0 -25 -18 11 -17 -21 2 -41 16 -18 17 -23 4 -33 -15 -12 -10 -55
5 -45 16 9 10 -3 -8 -17 -14 -12 -16 -12 -8 0 5 10 4 12 -4 7 -9 -6 -9 -11 -1
-21 7 -8 9 -18 7 -22 -3 -5 -2 -27 2 -50 7 -35 6 -40 -8 -35 -13 4 -12 0 4
-19 11 -13 16 -21 11 -17 -4 4 -19 3 -32 -2 -15 -6 -26 -6 -30 1 -4 6 -14 4
-29 -5 -17 -12 -26 -13 -31 -4 -4 6 -3 8 3 5 5 -3 10 0 10 8 0 10 -4 12 -12 5
-7 -5 -16 -6 -20 -2 -5 4 -5 -2 -1 -12 7 -20 7 -20 -15 0 -12 10 -19 14 -16 8
9 -15 -20 -27 -29 -12 -4 7 -3 8 4 4 8 -5 10 -2 6 8 -5 14 -8 13 -23 -2 -9
-10 -15 -16 -14 -14 1 3 -8 13 -20 24 -12 11 -16 17 -9 13 15 -8 16 11 0 21
-7 5 -5 11 7 21 18 12 18 13 1 13 -15 0 -16 3 -7 14 9 10 9 16 1 21 -8 5 -8
11 1 21 9 11 8 14 -2 15 -11 0 -11 2 -1 6 9 4 10 8 2 18 -8 10 -8 15 0 20 8 5
8 10 0 20 -8 9 -8 15 0 20 14 9 13 27 -2 20 -7 -4 -4 1 6 9 19 15 19 16 2 16
-15 0 -16 3 -6 15 10 12 10 15 -1 16 -11 0 -11 2 -1 6 9 4 10 8 2 18 -8 9 -8
15 0 20 14 9 13 27 -2 20 -7 -4 -4 1 6 9 19 15 19 16 2 16 -15 0 -16 3 -7 14
9 10 9 16 1 21 -8 5 -8 11 1 21 9 11 8 14 -2 15 -11 0 -11 2 -1 6 10 4 10 8 1
19 -9 11 -9 18 1 29 10 12 10 15 -1 15 -11 0 -11 2 1 10 11 7 11 10 2 10 -7 0
-10 5 -7 10 4 6 11 8 16 5 5 -3 6 1 3 9 -3 9 -11 13 -18 9 -6 -4 -5 1 3 10 11
14 11 17 0 17 -11 0 -11 2 1 10 11 7 11 10 2 10 -7 0 -10 5 -7 10 4 6 12 7 18
3 7 -4 6 0 -2 10 -7 9 -10 17 -7 17 4 0 4 6 -1 13 -11 18 -13 38 -2 31 5 -3 9
-1 9 5 0 5 -4 12 -8 15 -10 6 -9 36 2 54 4 7 2 12 -6 13 -10 0 -11 2 0 6 10 4
10 8 0 21 -10 12 -10 14 0 8 6 -4 12 -3 12 3 0 5 -4 12 -8 15 -10 6 -9 36 2
54 4 7 2 12 -6 12 -9 0 -9 3 2 10 13 9 13 11 0 20 -13 8 -13 10 0 10 11 0 11
3 2 12 -8 8 -9 15 -1 25 9 10 8 13 -2 13 -11 0 -11 2 1 10 11 7 11 10 2 10 -7
0 -10 5 -7 10 4 6 11 8 16 5 5 -3 6 1 3 9 -3 9 -10 14 -14 11 -10 -6 -8 15 3
33 5 7 3 12 -5 12 -10 0 -10 2 1 9 8 5 10 14 6 22 -5 8 -5 11 0 7 4 -4 17 -1
29 7 24 17 29 19 22 6z m-826 -381 c0 -5 -5 -10 -11 -10 -5 0 -7 5 -4 10 3 6
8 10 11 10 2 0 4 -4 4 -10z m-6 -86 c3 -8 2 -12 -4 -9 -6 3 -10 10 -10 16 0
14 7 11 14 -7z m1530 -232 c3 -5 -1 -9 -9 -9 -8 0 -12 4 -9 9 3 4 7 8 9 8 2 0
6 -4 9 -8z m-1521 -109 c-3 -7 -9 -10 -14 -7 -14 8 -11 21 5 21 8 0 12 -6 9
-14z m933 -962 c1 -6 0 -7 -3 -1 -2 5 -9 8 -13 5 -5 -3 -11 -1 -14 4 -4 5 2 8
11 7 9 -2 18 -8 19 -15z"/>
<path d="M1501 1764 c0 -11 3 -14 6 -6 3 7 2 16 -1 19 -3 4 -6 -2 -5 -13z"/>
<path d="M1055 1621 c-3 -6 -1 -11 4 -11 6 0 11 -4 11 -10 0 -5 -7 -7 -16 -3
-14 5 -15 3 -4 -17 9 -17 9 -21 0 -15 -9 5 -10 1 -5 -16 5 -13 9 -52 9 -85 1
-51 -1 -61 -14 -56 -11 4 -10 -1 4 -17 21 -23 31 -55 15 -45 -5 3 -7 10 -4 15
3 5 -1 6 -10 2 -12 -4 -13 -8 -5 -13 6 -4 11 -10 11 -14 -1 -3 -1 -9 0 -13 1
-5 1 -19 0 -33 0 -14 2 -19 5 -13 4 10 9 9 21 -3 14 -13 18 -13 39 0 22 15 23
15 19 -7 l-4 -22 17 23 c16 20 20 22 30 9 8 -9 22 -13 33 -10 12 3 24 0 29 -6
5 -9 9 -8 13 4 5 10 3 14 -5 9 -7 -5 -8 -3 -4 5 6 9 12 8 26 -4 14 -12 20 -13
26 -4 5 8 3 10 -6 4 -9 -5 -11 -4 -6 3 5 9 14 7 32 -4 21 -14 23 -14 19 -2 -5
11 0 15 17 14 26 -2 58 20 58 41 0 8 5 11 12 7 8 -5 9 -2 5 10 -6 14 -3 17 9
12 14 -5 15 -4 5 8 -9 10 -9 16 -1 21 8 5 8 10 0 20 -8 10 -8 15 1 20 8 6 7
10 -2 16 -12 7 -12 9 0 9 11 0 11 3 0 17 -10 11 -10 14 -1 9 6 -4 12 -3 12 1
0 5 -6 15 -12 22 -7 8 -8 11 -2 8 6 -3 11 0 11 8 0 8 -4 12 -9 9 -4 -3 -8 4
-8 16 0 12 -4 18 -10 15 -5 -3 -10 1 -10 9 0 9 -6 13 -14 10 -8 -3 -17 0 -22
7 -5 8 -3 10 7 4 12 -8 12 -6 0 8 -15 18 -26 23 -16 7 3 -5 1 -10 -4 -10 -6 0
-11 4 -11 9 0 5 -7 12 -16 15 -8 3 -12 2 -9 -4 9 -14 -8 -12 -24 3 -12 10 -13
9 -7 -7 5 -16 4 -17 -9 -6 -8 7 -12 17 -8 23 3 6 1 7 -6 3 -6 -4 -9 -11 -6
-16 3 -5 1 -12 -5 -15 -6 -4 -10 -3 -9 2 3 20 -2 34 -11 28 -6 -4 -7 -11 -4
-17 4 -6 2 -8 -4 -4 -5 3 -12 3 -15 -1 -2 -5 -2 -2 -1 5 2 6 -4 12 -12 12 -9
0 -12 -5 -8 -12 5 -8 0 -7 -11 2 -17 13 -18 13 -13 -1 6 -15 2 -15 -25 -7 -18
6 -40 15 -49 19 -14 7 -16 5 -12 -9 5 -15 4 -15 -9 1 -10 12 -17 14 -22 8z
m345 -305 c0 -2 -7 -9 -15 -16 -13 -11 -14 -10 -9 4 5 14 24 23 24 12z"/>
<path d="M1130 1626 c0 -2 7 -7 16 -10 8 -3 12 -2 9 4 -6 10 -25 14 -25 6z"/>
<path d="M1035 1480 c3 -5 8 -10 11 -10 2 0 4 5 4 10 0 6 -5 10 -11 10 -5 0
-7 -4 -4 -10z"/>
<path d="M1450 1089 c0 -5 5 -7 10 -4 6 3 10 8 10 11 0 2 -4 4 -10 4 -5 0 -10
-5 -10 -11z"/>
<path d="M1044 892 c3 -5 0 -13 -6 -15 -9 -4 -10 -6 -1 -6 17 -1 25 16 12 25
-7 4 -9 3 -5 -4z"/>
<path d="M1441 2433 c-1 -17 16 -25 25 -12 4 7 3 9 -4 5 -5 -3 -13 0 -15 6 -4
9 -6 10 -6 1z"/>
<path d="M670 2336 c0 -2 7 -7 16 -10 8 -3 12 -2 9 4 -6 10 -25 14 -25 6z"/>
<path d="M240 1980 c-9 -6 -10 -10 -3 -10 6 0 15 5 18 10 8 12 4 12 -15 0z"/>
<path d="M2412 1198 c2 -6 10 -13 16 -14 7 -1 8 0 2 3 -5 2 -8 9 -4 14 3 5 0
9 -6 9 -7 0 -10 -5 -8 -12z"/>
<path d="M550 206 c0 -2 7 -7 16 -10 8 -3 12 -2 9 4 -6 10 -25 14 -25 6z"/>
<path d="M1785 169 c-11 -16 -1 -19 13 -3 7 8 8 14 3 14 -5 0 -13 -5 -16 -11z"/>
<path d="M1173 15 c0 -8 4 -12 9 -9 5 3 6 10 3 15 -9 13 -12 11 -12 -6z"/>
<path d="M1228 3 c7 -3 16 -2 19 1 4 3 -2 6 -13 5 -11 0 -14 -3 -6 -6z"/>
</g>
</svg>
